<mxfile host="app.diagrams.net" modified="2021-04-16T11:26:00.895Z" agent="5.0 (Windows NT 10.0; Win64; x64) AppleWebKit/537.36 (KHTML, like Gecko) Chrome/89.0.4389.90 Safari/537.36" etag="9Jur0l2CA3WFxoDvkte6" version="14.5.10" type="github">
  <diagram id="HlzMxvfkD9BWfLVIhqds" name="Page-1">
    <mxGraphModel dx="1172" dy="725" grid="1" gridSize="10" guides="1" tooltips="1" connect="1" arrows="1" fold="1" page="1" pageScale="1" pageWidth="827" pageHeight="1169" math="0" shadow="0">
      <root>
        <mxCell id="0" />
        <mxCell id="1" parent="0" />
        <mxCell id="OcFdhlxIfbB7KDzl8nM3-1" value="获取MAC头" style="rounded=0;whiteSpace=wrap;html=1;" vertex="1" parent="1">
          <mxGeometry x="320" y="40" width="120" height="40" as="geometry" />
        </mxCell>
        <mxCell id="OcFdhlxIfbB7KDzl8nM3-3" value="获取IPv6头" style="rounded=0;whiteSpace=wrap;html=1;" vertex="1" parent="1">
          <mxGeometry x="520" y="124" width="110" height="30" as="geometry" />
        </mxCell>
        <mxCell id="OcFdhlxIfbB7KDzl8nM3-4" value="获取IPv4头" style="rounded=0;whiteSpace=wrap;html=1;" vertex="1" parent="1">
          <mxGeometry x="370" y="124" width="100" height="30" as="geometry" />
        </mxCell>
        <mxCell id="OcFdhlxIfbB7KDzl8nM3-5" value="获取ARP头" style="rounded=0;whiteSpace=wrap;html=1;" vertex="1" parent="1">
          <mxGeometry x="170" y="119" width="120" height="40" as="geometry" />
        </mxCell>
        <mxCell id="OcFdhlxIfbB7KDzl8nM3-6" value="获取ICMPv4头" style="rounded=0;whiteSpace=wrap;html=1;" vertex="1" parent="1">
          <mxGeometry x="640" y="365" width="110" height="30" as="geometry" />
        </mxCell>
        <mxCell id="OcFdhlxIfbB7KDzl8nM3-7" value="获取TCP头" style="rounded=0;whiteSpace=wrap;html=1;" vertex="1" parent="1">
          <mxGeometry x="240" y="360" width="120" height="40" as="geometry" />
        </mxCell>
        <mxCell id="OcFdhlxIfbB7KDzl8nM3-8" value="获取ICMPv6头" style="rounded=0;whiteSpace=wrap;html=1;" vertex="1" parent="1">
          <mxGeometry x="640" y="285" width="110" height="30" as="geometry" />
        </mxCell>
        <mxCell id="OcFdhlxIfbB7KDzl8nM3-9" value="获取UDP头" style="rounded=0;whiteSpace=wrap;html=1;" vertex="1" parent="1">
          <mxGeometry x="240" y="280" width="120" height="40" as="geometry" />
        </mxCell>
        <mxCell id="OcFdhlxIfbB7KDzl8nM3-10" value="获取HTTP头" style="rounded=0;whiteSpace=wrap;html=1;" vertex="1" parent="1">
          <mxGeometry x="440" y="440" width="120" height="40" as="geometry" />
        </mxCell>
        <mxCell id="OcFdhlxIfbB7KDzl8nM3-11" value="获取FTP头" style="rounded=0;whiteSpace=wrap;html=1;" vertex="1" parent="1">
          <mxGeometry x="610" y="440" width="120" height="40" as="geometry" />
        </mxCell>
        <mxCell id="OcFdhlxIfbB7KDzl8nM3-12" value="获取DNS头" style="rounded=0;whiteSpace=wrap;html=1;" vertex="1" parent="1">
          <mxGeometry x="280" y="440" width="120" height="40" as="geometry" />
        </mxCell>
        <mxCell id="OcFdhlxIfbB7KDzl8nM3-13" value="&lt;b&gt;&lt;font style=&quot;font-size: 20px&quot;&gt;IP&lt;/font&gt;&lt;/b&gt;" style="rounded=0;whiteSpace=wrap;html=1;gradientColor=#ffffff;fillColor=none;" vertex="1" parent="1">
          <mxGeometry x="360" y="120" width="280" height="40" as="geometry" />
        </mxCell>
        <mxCell id="OcFdhlxIfbB7KDzl8nM3-14" value="" style="endArrow=classic;html=1;exitX=0.5;exitY=1;exitDx=0;exitDy=0;entryX=0.25;entryY=0;entryDx=0;entryDy=0;" edge="1" parent="1" source="OcFdhlxIfbB7KDzl8nM3-1" target="OcFdhlxIfbB7KDzl8nM3-13">
          <mxGeometry width="50" height="50" relative="1" as="geometry">
            <mxPoint x="420" y="320" as="sourcePoint" />
            <mxPoint x="470" y="270" as="targetPoint" />
          </mxGeometry>
        </mxCell>
        <mxCell id="OcFdhlxIfbB7KDzl8nM3-15" value="" style="endArrow=classic;html=1;exitX=0.75;exitY=1;exitDx=0;exitDy=0;entryX=0.75;entryY=0;entryDx=0;entryDy=0;" edge="1" parent="1" source="OcFdhlxIfbB7KDzl8nM3-1" target="OcFdhlxIfbB7KDzl8nM3-13">
          <mxGeometry width="50" height="50" relative="1" as="geometry">
            <mxPoint x="390" y="90" as="sourcePoint" />
            <mxPoint x="440" y="130" as="targetPoint" />
          </mxGeometry>
        </mxCell>
        <mxCell id="OcFdhlxIfbB7KDzl8nM3-16" value="" style="endArrow=classic;html=1;exitX=0;exitY=1;exitDx=0;exitDy=0;entryX=0.5;entryY=0;entryDx=0;entryDy=0;" edge="1" parent="1" source="OcFdhlxIfbB7KDzl8nM3-1" target="OcFdhlxIfbB7KDzl8nM3-5">
          <mxGeometry width="50" height="50" relative="1" as="geometry">
            <mxPoint x="420" y="90" as="sourcePoint" />
            <mxPoint x="580" y="130" as="targetPoint" />
          </mxGeometry>
        </mxCell>
        <mxCell id="OcFdhlxIfbB7KDzl8nM3-17" value="0x0806" style="text;html=1;strokeColor=none;fillColor=none;align=center;verticalAlign=middle;whiteSpace=wrap;rounded=0;" vertex="1" parent="1">
          <mxGeometry x="230" y="80" width="40" height="20" as="geometry" />
        </mxCell>
        <mxCell id="OcFdhlxIfbB7KDzl8nM3-18" value="0x0800" style="text;html=1;strokeColor=none;fillColor=none;align=center;verticalAlign=middle;whiteSpace=wrap;rounded=0;" vertex="1" parent="1">
          <mxGeometry x="337" y="90" width="40" height="20" as="geometry" />
        </mxCell>
        <mxCell id="OcFdhlxIfbB7KDzl8nM3-19" value="0x086dd" style="text;html=1;strokeColor=none;fillColor=none;align=center;verticalAlign=middle;whiteSpace=wrap;rounded=0;" vertex="1" parent="1">
          <mxGeometry x="520" y="90" width="40" height="20" as="geometry" />
        </mxCell>
        <mxCell id="OcFdhlxIfbB7KDzl8nM3-20" value="" style="endArrow=classic;html=1;exitX=0.5;exitY=1;exitDx=0;exitDy=0;" edge="1" parent="1" source="OcFdhlxIfbB7KDzl8nM3-13" target="OcFdhlxIfbB7KDzl8nM3-10">
          <mxGeometry width="50" height="50" relative="1" as="geometry">
            <mxPoint x="480" y="280" as="sourcePoint" />
            <mxPoint x="530" y="230" as="targetPoint" />
          </mxGeometry>
        </mxCell>
        <mxCell id="OcFdhlxIfbB7KDzl8nM3-21" value="" style="endArrow=classic;startArrow=classic;html=1;exitX=1;exitY=0.5;exitDx=0;exitDy=0;entryX=0;entryY=0.5;entryDx=0;entryDy=0;" edge="1" parent="1" source="OcFdhlxIfbB7KDzl8nM3-9" target="OcFdhlxIfbB7KDzl8nM3-8">
          <mxGeometry width="50" height="50" relative="1" as="geometry">
            <mxPoint x="420" y="320" as="sourcePoint" />
            <mxPoint x="470" y="270" as="targetPoint" />
          </mxGeometry>
        </mxCell>
        <mxCell id="OcFdhlxIfbB7KDzl8nM3-22" value="" style="endArrow=classic;startArrow=classic;html=1;exitX=1;exitY=0.5;exitDx=0;exitDy=0;entryX=0;entryY=0.5;entryDx=0;entryDy=0;" edge="1" parent="1" source="OcFdhlxIfbB7KDzl8nM3-7" target="OcFdhlxIfbB7KDzl8nM3-6">
          <mxGeometry width="50" height="50" relative="1" as="geometry">
            <mxPoint x="370" y="310" as="sourcePoint" />
            <mxPoint x="650" y="310" as="targetPoint" />
          </mxGeometry>
        </mxCell>
        <mxCell id="OcFdhlxIfbB7KDzl8nM3-23" value="0x11" style="text;html=1;strokeColor=none;fillColor=none;align=center;verticalAlign=middle;whiteSpace=wrap;rounded=0;" vertex="1" parent="1">
          <mxGeometry x="430" y="280" width="40" height="20" as="geometry" />
        </mxCell>
        <mxCell id="OcFdhlxIfbB7KDzl8nM3-24" value="0x06" style="text;html=1;strokeColor=none;fillColor=none;align=center;verticalAlign=middle;whiteSpace=wrap;rounded=0;" vertex="1" parent="1">
          <mxGeometry x="430" y="350" width="40" height="20" as="geometry" />
        </mxCell>
        <mxCell id="OcFdhlxIfbB7KDzl8nM3-25" value="0x3a" style="text;html=1;strokeColor=none;fillColor=none;align=center;verticalAlign=middle;whiteSpace=wrap;rounded=0;" vertex="1" parent="1">
          <mxGeometry x="560" y="280" width="40" height="20" as="geometry" />
        </mxCell>
        <mxCell id="OcFdhlxIfbB7KDzl8nM3-26" value="0x01" style="text;html=1;strokeColor=none;fillColor=none;align=center;verticalAlign=middle;whiteSpace=wrap;rounded=0;" vertex="1" parent="1">
          <mxGeometry x="560" y="360" width="40" height="20" as="geometry" />
        </mxCell>
        <mxCell id="OcFdhlxIfbB7KDzl8nM3-27" value="" style="rounded=1;whiteSpace=wrap;html=1;strokeColor=#000000;fillColor=none;gradientColor=#ffffff;dashed=1;" vertex="1" parent="1">
          <mxGeometry x="50" y="110" width="720" height="60" as="geometry" />
        </mxCell>
        <mxCell id="OcFdhlxIfbB7KDzl8nM3-28" value="" style="rounded=1;whiteSpace=wrap;html=1;dashed=1;strokeColor=#000000;fillColor=none;gradientColor=#ffffff;" vertex="1" parent="1">
          <mxGeometry x="60" y="270" width="710" height="140" as="geometry" />
        </mxCell>
        <mxCell id="OcFdhlxIfbB7KDzl8nM3-29" value="" style="rounded=1;whiteSpace=wrap;html=1;dashed=1;strokeColor=#000000;fillColor=none;gradientColor=#ffffff;" vertex="1" parent="1">
          <mxGeometry x="60" y="430" width="710" height="80" as="geometry" />
        </mxCell>
        <mxCell id="OcFdhlxIfbB7KDzl8nM3-30" value="传输层" style="text;html=1;strokeColor=none;fillColor=none;align=center;verticalAlign=middle;whiteSpace=wrap;rounded=0;dashed=1;" vertex="1" parent="1">
          <mxGeometry x="70" y="320" width="40" height="20" as="geometry" />
        </mxCell>
        <mxCell id="OcFdhlxIfbB7KDzl8nM3-31" value="网络层" style="text;html=1;strokeColor=none;fillColor=none;align=center;verticalAlign=middle;whiteSpace=wrap;rounded=0;dashed=1;" vertex="1" parent="1">
          <mxGeometry x="60" y="129" width="40" height="20" as="geometry" />
        </mxCell>
        <mxCell id="OcFdhlxIfbB7KDzl8nM3-32" value="应用层" style="text;html=1;strokeColor=none;fillColor=none;align=center;verticalAlign=middle;whiteSpace=wrap;rounded=0;dashed=1;" vertex="1" parent="1">
          <mxGeometry x="90" y="460" width="40" height="20" as="geometry" />
        </mxCell>
      </root>
    </mxGraphModel>
  </diagram>
</mxfile>
